<?xml version="1.0" encoding="utf-8"?>
<!-- Generator: Adobe Illustrator 25.4.1, SVG Export Plug-In . SVG Version: 6.00 Build 0)  -->
<svg version="1.1" id="Layer_1" xmlns="http://www.w3.org/2000/svg" xmlns:xlink="http://www.w3.org/1999/xlink" x="0px" y="0px"
	 viewBox="0 0 65 65" style="enable-background:new 0 0 65 65;" xml:space="preserve">
<style type="text/css">
	.st0{fill:#93328E;}
	.st1{fill:#F4364C;}
	.st2{fill:#351F65;}
	.st3{fill:#FFFFFF;}
</style>
<g>
	<g>
		<path class="st0" d="M33.9,58.5c-7,3.4-11.8,4-14.9,2.9c3.1,4.5,8.7,5.6,19.3-1.9c2.8-2.1,10.3-9.5,15.4-18.6
			C46.9,50,37.3,56.8,33.9,58.5z"/>
		<path class="st0" d="M14.7,29.5c-0.4-7.2-8.1-16.3-6.3-22.8c-0.8,0.5-1.4,1-2,1.5c-7.4,7.7,5.9,17.2,7.9,25.9c0,0.1,0,0.2,0.1,0.3
			C14.6,32.4,14.7,30.7,14.7,29.5z"/>
		<path class="st1" d="M58.4,18.7c1.8,7.4-0.8,15.3-4.7,22.3c4.4-5.8,7.5-12.5,7.1-19.4C59.6,4,21.6-4.8,11.3,2.6
			c-1.6,1.2-2.5,2.5-2.9,4C20-0.5,54.6,2.6,58.4,18.7z"/>
		<path class="st1" d="M19,61.4c-4.6-6.8-3.5-21.6-4.6-27.1C13.4,43.4,10.7,58.5,19,61.4z"/>
		<path class="st2" d="M33.9,58.5c3.4-1.8,13-8.6,19.8-17.6c3.9-6.9,6.5-14.8,4.7-22.3C54.6,2.6,20-0.5,8.4,6.7
			c-1.8,6.5,5.9,15.6,6.3,22.8c0.1,1.2-0.1,2.9-0.3,4.9c1.1,5.5,0,20.3,4.6,27.1C22.2,62.6,26.9,61.9,33.9,58.5z"/>
	</g>
	<g>
		<g>
			<g>
				<path class="st3" d="M43.7,32.3c-0.1-2.6-2.3-4.7-5-4.6C36,27.8,33.9,30,34,32.6c0.1,2.6,2.3,4.7,5,4.6
					C41.7,37.1,43.8,35,43.7,32.3z"/>
			</g>
		</g>
		<g>
			<g>
				<path class="st3" d="M36.3,15.4l-0.6-2.1c-0.2-0.7-0.9-1-1.6-0.9l-2.5,0.7c-0.7,0.2-1.1,0.9-0.9,1.6l0.6,2.1l3.2,1.7L36.3,15.4z
					"/>
				<path class="st3" d="M33,22.6l0.6,2.1c0.2,0.7,0.9,1,1.6,0.9l2.5-0.7c0.7-0.2,1.1-0.9,0.9-1.6L38,21.2l-3.2-1.7L33,22.6z"/>
				<path class="st3" d="M38.4,20.6l2.1-0.6c0.7-0.2,1.1-0.9,0.9-1.6l-0.7-2.5c-0.2-0.7-0.9-1-1.6-0.9l-2.1,0.6l-1.8,3.2L38.4,20.6z
					"/>
				<path class="st3" d="M31,17.4L28.9,18c-0.7,0.2-1.1,0.9-0.9,1.6l0.7,2.5c0.2,0.7,0.9,1,1.6,0.9l2.1-0.6l1.8-3.2L31,17.4z"/>
			</g>
		</g>
	</g>
</g>
</svg>
